<?xml version="1.0" encoding="UTF-8" standalone="no"?>
<!-- Created with Inkscape (http://www.inkscape.org/) -->

<svg
   xmlns:dc="http://purl.org/dc/elements/1.1/"
   xmlns:cc="http://creativecommons.org/ns#"
   xmlns:rdf="http://www.w3.org/1999/02/22-rdf-syntax-ns#"
   xmlns:svg="http://www.w3.org/2000/svg"
   xmlns="http://www.w3.org/2000/svg"
   version="1.1"
   width="107"
   height="18"
   id="svg2">
  <defs
     id="defs4" />
  <metadata
     id="metadata7">
    <rdf:RDF>
      <cc:Work
         rdf:about="">
        <dc:format>image/svg+xml</dc:format>
        <dc:type
           rdf:resource="http://purl.org/dc/dcmitype/StillImage" />
        <dc:title></dc:title>
        <dc:creator>
          <cc:Agent>
            <dc:title>T. Gantt</dc:title>
          </cc:Agent>
        </dc:creator>
      </cc:Work>
    </rdf:RDF>
  </metadata>
  <g
     id="layer2"
     style="display:inline">
    <path
       d="m 15,1 0,14 -13,0 0,2 15,0 0,-16 -2,0 z m 10,0 0,8 2,0 0,-8 -2,0 z m 26,0 0,14 -14,0 0,2 16,0 0,-16 -2,0 z m 18,0 0,14 -14,0 0,2 16,0 0,-16 -2,0 z m 18,0 0,14 -14,0 0,2 16,0 0,-16 -2,0 z m 18,0 0,6 -4,0 0,8 -6,0 0,2 8,0 0,-8 4,0 0,-8 -2,0 z m -14,6 0,2 4,0 0,-2 -4,0 z m -58,2 0,6 -14,0 0,2 16,0 0,-8 -2,0 z"
       id="path3767"
       style="color:#000000;fill:#000000;fill-opacity:1;fill-rule:nonzero;stroke:none;stroke-width:2;marker:none;visibility:visible;display:inline;overflow:visible;enable-background:accumulate" />
    <path
       d="M 1,0 1,1 0,1 0,15 1,15 1,16 16,16 16,0 1,0 z m 17,0 0,16 16,0 0,-8 -8,0 0,-8 -8,0 z m 18,0 0,16 16,0 0,-16 -16,0 z m 18,0 0,16 16,0 0,-16 -16,0 z m 18,0 0,16 16,0 0,-16 -16,0 z m 18,0 0,8 4,0 0,8 8,0 0,-8 4,0 0,-8 -16,0 z"
       id="path3784"
       style="color:#000000;fill:#ffffff;fill-opacity:1;fill-rule:nonzero;stroke:none;stroke-width:2;marker:none;visibility:visible;display:inline;overflow:visible;enable-background:accumulate" />
    <path
       d="M 3,2 3,3 2,3 2,13 12,13 14,11 14,10 7,10 6,11 5,10 6,9 6,8 5.4375,7.4375 6,7 6,6 14,6 14,2 3,2 z m 17,0 0,12 1,0 1,-1 9,-1 1,-1 0,-1 -7,0 -1,1 L 23,10 24,9 24,8 23.40625,7.5 24,7 24,2 20,2 z m 18,0 0,4 4,0 0,4 -4,0 0,4 1,0 2,-2 8,0 1,-1 0,-1 -3,0 -1,1 L 45,10 46,9 46,8 45.46875,7.53125 46,7 46,6 50,6 50,2 38,2 z m 18,0 0,12 1,0 1,-1 9,0 1,-1 0,-1 -7,0 -1,1 -1,-1 0,-1 L 60,9 60.5,8.46875 61,9 62,9 62.59375,8.40625 63,9 64,9 64.5625,8.40625 65,9 66,9 66.53125,8.46875 67,9 68,9 68,7 60,7 60,5 68,5 68,2 56,2 z m 18,0 0,12 1,0 2,-2 0,-2 1,-1 0,-1 1,0 0,2 1,0 0.5625,0.5 L 80,11 l 0,1 1,0 0.5,0.46875 L 81,13 l 0,1 1,0 3,-3 0,-1 L 86,9 86,8 85.46875,7.53125 86,7 86,2 82,2 82,8 81,8 81,6 80,6 80,4 79,4 79,2 74,2 z m 18,0 0,4 4,0 0,8 1,0 2,-2 0,-2 1,-1 0,-1 L 99.46875,7.4375 100,7 l 0,-1 4,0 0,-4 -12,0 z"
       id="path3797"
       style="color:#000000;fill:#333333;fill-opacity:1;fill-rule:nonzero;stroke:none;stroke-width:2;marker:none;visibility:visible;display:inline;overflow:visible;enable-background:accumulate" />
    <path
       d="M 3,7 3,8 4,8 4,7 3,7 z M 4,8 4,9 3,9 3,14 14,14 14,11 7,11 7,10 6,10 6,9 5,9 5,8 4,8 z M 5,8 6,8 6,7 5,7 5,8 z m 16,-1 0,1 1,0 0,-1 -1,0 z m 1,1 0,1 -1,0 0,5 11,0 0,-3 -7,0 0,-1 -1,0 0,-1 -1,0 0,-1 -1,0 z m 1,0 1,0 0,-1 -1,0 0,1 z m 20,-1 0,1 1,0 0,-1 -1,0 z m 1,1 0,1 -1,0 0,2 -4,0 0,3 11,0 0,-3 -3,0 0,-1 -1,0 0,-1 -1,0 0,-1 -1,0 z m 1,0 1,0 0,-1 -1,0 0,1 z m 12,-1 0,1 1,0 0,-1 -1,0 z m 1,1 0,1 -1,0 0,5 11,0 0,-2 -7,0 0,-1 -1,0 0,-2 -1,0 0,-1 -1,0 z m 1,0 1,0 0,-1 -1,0 0,1 z m 1,0 0,1 1,0 0,-1 -1,0 z m 15,-1 0,1 1,0 0,-1 -1,0 z m 1,1 0,1 -1,0 0,5 3,0 0,-5 -1,0 0,-1 -1,0 z m 1,0 1,0 0,-1 -1,0 0,1 z m 2,-1 0,1 1,0 0,-1 -1,0 z m 1,1 0,3 1,0 0,2 1,0 0,1 4,0 0,-5 -1,0 0,-1 -1,0 0,1 -3,0 0,-1 -1,0 z m 4,0 0,-1 -1,0 0,1 1,0 z m 1,0 1,0 0,-1 -1,0 0,1 z m 12,-1 0,1 1,0 0,-1 -1,0 z m 1,1 0,1 -1,0 0,5 3,0 0,-5 -1,0 0,-1 -1,0 z m 1,0 1,0 0,-1 -1,0 0,1 z m -37,0 0,1 1,0 0,-1 -1,0 z m 2,0 0,1 1,0 0,-1 -1,0 z m 2,0 0,1 1,0 0,-1 -1,0 z"
       id="path3810"
       style="color:#000000;fill:#ccff00;fill-opacity:1;fill-rule:nonzero;stroke:none;stroke-width:2;marker:none;visibility:visible;display:inline;overflow:visible;enable-background:accumulate" />
  </g>
</svg>
