<?xml version="1.0" encoding="UTF-8" standalone="no"?>
<!-- Created with Inkscape (http://www.inkscape.org/) -->

<svg
   xmlns:dc="http://purl.org/dc/elements/1.1/"
   xmlns:cc="http://creativecommons.org/ns#"
   xmlns:rdf="http://www.w3.org/1999/02/22-rdf-syntax-ns#"
   xmlns:svg="http://www.w3.org/2000/svg"
   xmlns="http://www.w3.org/2000/svg"
   version="1.1"
   width="192"
   height="18"
   id="svg2">
  <defs
     id="defs4" />
  <metadata
     id="metadata7">
    <rdf:RDF>
      <cc:Work
         rdf:about="">
        <dc:format>image/svg+xml</dc:format>
        <dc:type
           rdf:resource="http://purl.org/dc/dcmitype/StillImage" />
        <dc:title></dc:title>
        <dc:creator>
          <cc:Agent>
            <dc:title>T. Gantt</dc:title>
          </cc:Agent>
        </dc:creator>
      </cc:Work>
    </rdf:RDF>
  </metadata>
  <g
     transform="translate(-20,0)"
     id="layer2"
     style="display:inline">
    <path
       d="m 54,1 -1,1 0,13 -13,0 -1,1 0,1 16,0 0,-16 -1,0 z m 18,0 -1,1 0,9 -4,4 -5,0 -1,1 0,1 8,0 0,-1 1,0 0,-1 1,0 0,-1 1,0 0,-1 1,0 0,-12 -1,0 z m 18,0 -1,1 0,13 -13,0 -1,1 0,1 16,0 0,-16 -1,0 z m 10,0 -1,1 0,7 1,0 1,-1 0,-7 -1,0 z m 26,0 -1,1 0,13 -13,0 -1,1 0,1 16,0 0,-16 -1,0 z m 36,0 -1,1 0,13 -13,0 -1,1 0,1 16,0 0,-16 -1,0 z m 36,0 -1,1 0,13 -13,0 -1,1 0,1 16,0 0,-16 -1,0 z m -162,1 -1,1 0,11 -1,0 0,1 -12,0 -1,1 0,1 15,0 0,-1 1,0 0,-14 -1,0 z m 108,0 -1,1 0,8 -8,0 0,4 -5,0 -1,1 0,1 8,0 0,-4 8,0 0,-11 -1,0 z m 36,0 -1,1 0,12 -13,0 -1,1 0,1 16,0 0,-15 -1,0 z m 31,1 -1,1 0,9 -2,2 -3,0 -1,1 0,1 6,0 0,-1 1,0 0,-1 1,0 0,-12 -1,0 z m -103,6 -1,1 0,5 -13,0 -1,1 0,1 16,0 0,-8 -1,0 z"
       id="path6358"
       style="color:#000000;fill:#000000;fill-opacity:1;fill-rule:nonzero;stroke:none;stroke-width:2;marker:none;visibility:visible;display:inline;overflow:visible;enable-background:accumulate" />
    <path
       d="m 20,0 0,16 15,0 0,-1 1,0 0,-14 -1,0 0,-1 -15,0 z m 18,0 0,16 16,0 0,-16 -16,0 z m 18,0 0,12 1,0 0,1 1,0 0,1 1,0 0,1 1,0 0,1 8,0 0,-1 1,0 0,-1 1,0 0,-1 1,0 0,-1 1,0 0,-12 -16,0 z m 18,0 0,16 16,0 0,-16 -16,0 z m 18,0 0,16 16,0 0,-8 -8,0 0,-8 -8,0 z m 18,0 0,16 16,0 0,-16 -16,0 z m 18,0 0,16 8,0 0,-4 8,0 0,-11 -1,0 0,-1 -15,0 z m 18,0 0,16 16,0 0,-16 -16,0 z m 18,0 0,16 16,0 0,-15 -1,0 0,-1 -15,0 z m 18,0 0,16 16,0 0,-16 -16,0 z m 21,2 0,14 6,0 0,-1 1,0 0,-1 1,0 0,-12 -8,0 z"
       id="path6333"
       style="color:#000000;fill:#ffffff;fill-opacity:1;fill-rule:nonzero;stroke:none;stroke-width:2;marker:none;visibility:visible;display:inline;overflow:visible;enable-background:accumulate" />
    <path
       d="m 22,2 0,12 1,0 1,-1 0,-3 1,0 L 26,9 26,8 25.46875,7.53125 26,7 l 0,-1 4,0 0,4 -3,0 -1,1 1,1 5,0 0,-2 1,0 L 34,9 34,8 33.4375,7.5625 34,7 34,3 33,3 33,2 22,2 z m 18,0 0,12 1,0 1,-1 0,-1 1,0 0,-2 L 44,9 44.59375,8.5 45,9 46,9 46.53125,8.46875 47,9 48,9 48.46875,8.46875 49,9 50,9 50.5625,8.40625 51,9 52,9 52,7 44,7 44,5 52,5 52,2 40,2 z m 18,0 0,9 1,0 1,-1 1,0 L 62,9 62,8 61.53125,7.40625 62,7 62,2 58,2 z m 8,0 0,7 -1,0 0,1 -1,0 -1,1 0,1 4,0 L 70,9 70,8 69.4375,7.5625 70,7 70,2 66,2 z m 10,0 0,12 1,0 1,-1 0,-1 1,0 0,-2 L 80,9 80.5,8.5 81,9 82,9 82.53125,8.5 83,9 84,9 84.4375,8.34375 85,9 86,9 86.5625,8.40625 87,9 88,9 88,7 80,7 80,5 88,5 88,2 76,2 z m 18,0 0,12 1,0 1,-1 0,-3 1,0 L 98,9 98,8 97.5,7.5 98,7 98,2 94,2 z m 18,0 0,12 1,0 1,-1 0,-3 1,0 1,-1 0,-1 L 115.4375,7.53125 116,7 l 0,-1 4,0 0,4 -3,0 -1,1 1,1 6,0 0,-2 1,-1 0,-1 L 123.5,7.53125 124,7 124,2 112,2 z m 18,0 0,12 1,0 0.625,-0.46875 0.0625,-3.875 2.625,-0.21875 0,-1.1875 L 134,8 133.40625,7.375 134,7 l 0,-1 4,0 0,2 -3,0 -0.28125,0.53125 -0.0312,0.9375 L 141.5625,9.5 142,9 142,8 141.40625,7.53125 142,7 l 0,-4 -1,0 0,-1 -11,0 z m 18,0 0,12 1,0 1,-1 0,-1 1,0 0,-2 1,-1 0.5,-0.5 0.5,0.5 1,0 0.53125,-0.5 L 155,9 156,9 156.4375,8.34375 157,9 158,9 158.5625,8.40625 159,9 l 1,0 0,-2 -8,0 0,-2 8,0 0,-3 -12,0 z m 18,0 0,12 1,0 1,-1 -0.40625,-3.5 2.6875,-0.0625 L 170.375,8.5 170,8 169.4375,7.4375 170,7 l 0,-1 4,0 0,2 -3,0 -0.3125,0.46875 0,1.09375 4.875,-0.03125 L 176,9 l 0,-1 1,0 1,-1 0,-4 -1,0 0,-1 -11,0 z m 18,0 0,7 2,0 0.53125,-0.53125 L 187,9 188,9 188.625,8.46875 189,9 190,9 190.59375,8.40625 191,9 192,9 192.34375,9.34375 195.6875,9.375 196,9 l 0,-2 -8,0 0,-2 8,0 0,-3 -12,0 z m 21,2 0,4 1,0 0.4375,-0.625 L 207,8 l 1,0 1,-1 0,-3 -4,0 z M 192.3125,9.6875 192,10 l 0,1 -8,0 0,3 1,0 1,-1 8,0 0,-3 -0.4375,-0.28125 -1.25,-0.03125 z M 99,10 l -1,1 0,1 7,0 1,-1 0,-1 -7,0 z m 106,0 0,4 1,0 0.5625,-0.25 0.0937,-2.15625 1.9063,-0.03125 L 209,11 l 0,-1 -4,0 z m -160,1 -1,1 1,1 6,0 1,-1 0,-1 -7,0 z m 36,0 -1,1 1,1 6,0 1,-1 0,-1 -7,0 z m 72,0 -1,1 1,1 6,0 1,-1 0,-1 -7,0 z m 22,0 -1,1 0,2 1,0 1,-1 0,-2 -1,0 z"
       id="path6275"
       style="color:#000000;fill:#888888;fill-opacity:1;fill-rule:nonzero;stroke:none;stroke-width:2;marker:none;visibility:visible;display:inline;overflow:visible;enable-background:accumulate" />
    <path
       d="m 23,7 0,1 1,0 0,-1 -1,0 z m 1,1 0,1 -1,0 0,5 10,0 0,-1 1,0 0,-4 -1,0 0,-1 -1,0 0,1 -1,0 0,2 -4,0 0,-1 -1,0 0,-1 -1,0 0,-1 -1,0 z m 1,0 1,0 0,-1 -1,0 0,1 z m 7,0 0,-1 -1,0 0,1 1,0 z m 1,0 1,0 0,-1 -1,0 0,1 z m 8,-1 0,1 1,0 0,-1 -1,0 z m 1,1 0,1 -1,0 0,5 11,0 0,-2 -7,0 0,-1 -1,0 0,-2 -1,0 0,-1 -1,0 z m 1,0 1,0 0,-1 -1,0 0,1 z m 1,0 0,1 1,0 0,-1 -1,0 z m 15,-1 0,1 1,0 0,-1 -1,0 z m 1,1 0,1 -1,0 0,3 1,0 0,1 1,0 0,1 6,0 0,-1 1,0 0,-1 1,0 0,-1 1,0 0,-2 -1,0 0,-1 -1,0 0,1 -1,0 0,1 -1,0 0,1 -2,0 0,-1 -1,0 0,-1 -2,0 0,-1 -1,0 z m 1,0 1,0 0,-1 -1,0 0,1 z m 7,0 0,-1 -1,0 0,1 1,0 z m 1,0 1,0 0,-1 -1,0 0,1 z m 8,-1 0,1 1,0 0,-1 -1,0 z m 1,1 0,1 -1,0 0,5 11,0 0,-2 -7,0 0,-1 -1,0 0,-2 -1,0 0,-1 -1,0 z m 1,0 1,0 0,-1 -1,0 0,1 z m 1,0 0,1 1,0 0,-1 -1,0 z m 15,-1 0,1 1,0 0,-1 -1,0 z m 1,1 0,1 -1,0 0,5 11,0 0,-3 -7,0 0,-1 -1,0 0,-1 -1,0 0,-1 -1,0 z m 1,0 1,0 0,-1 -1,0 0,1 z m 16,-1 0,1 1,0 0,-1 -1,0 z m 1,1 0,1 -1,0 0,5 11,0 0,-5 -1,0 0,-1 -1,0 0,1 -1,0 0,2 -4,0 0,-1 -1,0 0,-1 -1,0 0,-1 -1,0 z m 1,0 1,0 0,-1 -1,0 0,1 z m 7,0 0,-1 -1,0 0,1 1,0 z m 1,0 1,0 0,-1 -1,0 0,1 z m 8,-1 0,1 1,0 0,-1 -1,0 z m 1,1 0,1 -1,0 0,5 3,0 0,-4 8,0 0,-1 -1,0 0,-1 -1,0 0,1 -5,0 0,-1 -1,0 0,1 -1,0 0,-1 -1,0 z m 1,0 1,0 0,-1 -1,0 0,1 z m 7,0 0,-1 -1,0 0,1 1,0 z m 1,0 1,0 0,-1 -1,0 0,1 z m 8,-1 0,1 1,0 0,-1 -1,0 z m 1,1 0,1 -1,0 0,5 11,0 0,-2 -7,0 0,-1 -1,0 0,-2 -1,0 0,-1 -1,0 z m 1,0 1,0 0,-1 -1,0 0,1 z m 1,0 0,1 1,0 0,-1 -1,0 z m 15,-1 0,1 1,0 0,-1 -1,0 z m 1,1 0,1 -1,0 0,5 3,0 0,-4 3,0 0,1 1,0 0,1 1,0 0,2 3,0 0,-4 -1,0 0,-1 -6,0 0,-1 -1,0 0,1 -1,0 0,-1 -1,0 z m 1,0 1,0 0,-1 -1,0 0,1 z m 6,-1 0,1 1,0 0,-1 -1,0 z m 2,0 0,1 1,0 0,-1 -1,0 z m 8,0 0,1 1,0 0,-1 -1,0 z m 1,1 0,1 1,0 0,-1 -1,0 z m 1,0 1,0 0,-1 -1,0 0,1 z m 1,0 0,1 1,0 0,-1 -1,0 z m 18,-1 0,1 1,0 0,-1 -1,0 z m 2,0 0,1 1,0 0,-1 -1,0 z m -162,1 0,1 1,0 0,-1 -1,0 z m 2,0 0,1 1,0 0,-1 -1,0 z m 2,0 0,1 1,0 0,-1 -1,0 z m 32,0 0,1 1,0 0,-1 -1,0 z m 2,0 0,1 1,0 0,-1 -1,0 z m 2,0 0,1 1,0 0,-1 -1,0 z m 68,0 0,1 1,0 0,-1 -1,0 z m 2,0 0,1 1,0 0,-1 -1,0 z m 2,0 0,1 1,0 0,-1 -1,0 z m 32,0 0,1 1,0 0,-1 -1,0 z m 2,0 0,2 1,0 0,2 -8,0 0,2 11,0 0,-5 -1,0 0,-1 -1,0 0,1 -1,0 0,-1 -1,0 z m 14,3 0,3 1,0 0,-1 1,0 0,-1 1,0 0,-1 -3,0 z"
       id="path6222"
       style="color:#000000;fill:#31d6ff;fill-opacity:1;fill-rule:nonzero;stroke:none;stroke-width:2;marker:none;visibility:visible;display:inline;overflow:visible;enable-background:accumulate" />
  </g>
</svg>
