<?xml version="1.0" encoding="UTF-8" standalone="no"?>
<!-- Created with Inkscape (http://www.inkscape.org/) -->

<svg
   xmlns:dc="http://purl.org/dc/elements/1.1/"
   xmlns:cc="http://creativecommons.org/ns#"
   xmlns:rdf="http://www.w3.org/1999/02/22-rdf-syntax-ns#"
   xmlns:svg="http://www.w3.org/2000/svg"
   xmlns="http://www.w3.org/2000/svg"
   xmlns:sodipodi="http://sodipodi.sourceforge.net/DTD/sodipodi-0.dtd"
   xmlns:inkscape="http://www.inkscape.org/namespaces/inkscape"
   width="264"
   height="18"
   viewBox="0 0 264 18"
   id="svg2"
   version="1.1"
   inkscape:version="0.48.4 r9939"
   sodipodi:docname="C:\Users\Knite\Dropbox\Game Jolt\Logo\Inkscape Individual SVGs\game-jolt-logo.svg">
  <defs
     id="defs4" />
  <sodipodi:namedview
     id="base"
     pagecolor="#ffffff"
     bordercolor="#666666"
     borderopacity="1.0"
     inkscape:pageopacity="0.0"
     inkscape:pageshadow="2"
     inkscape:zoom="3.45"
     inkscape:cx="154.30149"
     inkscape:cy="8.763888"
     inkscape:document-units="px"
     inkscape:current-layer="layer2"
     showgrid="true"
     inkscape:window-width="1600"
     inkscape:window-height="838"
     inkscape:window-x="-8"
     inkscape:window-y="-8"
     inkscape:window-maximized="1"
     inkscape:snap-bbox="true">
    <inkscape:grid
       type="xygrid"
       id="grid2985"
       empspacing="5"
       visible="true"
       enabled="true"
       snapvisiblegridlinesonly="true" />
  </sodipodi:namedview>
  <metadata
     id="metadata7">
    <rdf:RDF>
      <cc:Work
         rdf:about="">
        <dc:format>image/svg+xml</dc:format>
        <dc:type
           rdf:resource="http://purl.org/dc/dcmitype/StillImage" />
        <dc:title></dc:title>
        <dc:creator>
          <cc:Agent>
            <dc:title>T. Gantt</dc:title>
          </cc:Agent>
        </dc:creator>
      </cc:Work>
    </rdf:RDF>
  </metadata>
  <g
     inkscape:groupmode="layer"
     id="layer2"
     inkscape:label="game-jolt-jams-logo"
     style="display:inline"
     sodipodi:insensitive="true">
    <path
       style="color:#000000;fill:#000000;fill-opacity:1;fill-rule:nonzero;stroke:none;stroke-width:5;marker:none;visibility:visible;display:inline;overflow:visible;enable-background:accumulate"
       d="m 14,1 0,1 -1,0 0,1 -1,0 0,1 -1,0 0,2 2,0 0,1 -1,0 0,1 -1,0 0,1 -1,0 0,1 -1,0 0,1 -1,0 0,1 -1,0 0,1 -1,0 0,1 -1,0 0,1 -1,0 0,2 0,1 1,0 0,-1 1,0 0,-1 1,0 0,-1 1,0 0,-1 1,0 0,-1 1,0 0,-1 1,0 0,-1 1,0 0,-1 1,0 0,-1 1,0 0,-1 1,0 0,-1 1,0 0,-1 -2,0 0,-2 1,0 0,-1 1,0 0,-1 1,0 0,-1 -3,0 z m 9,0 0,12 2,0 0,-8 12,0 0,-4 -14,0 z m 28,0 0,2 -10,0 0,4 2,0 0,-2 8,0 0,4 -12,0 0,8 4,0 0,-6 8,0 0,6 4,0 0,-16 -4,0 z m 18,0 0,2 -12,0 0,14 4,0 0,-12 2,0 0,12 4,0 0,-12 2,0 0,12 4,0 0,-16 -4,0 z m 8,0 0,12 -2,0 0,4 16,0 0,-4 -12,0 0,-2 12,0 0,-4 -12,0 0,-2 12,0 0,-4 -14,0 z m 33,0 0,14 -14,0 0,2 16,0 0,-16 -2,0 z m 18,0 0,14 -14,0 0,2 16,0 0,-16 -2,0 z m 10,0 0,8 2,0 0,-8 -2,0 z m 24,0 0,6 -4,0 0,8 -6,0 0,2 8,0 0,-8 4,0 0,-8 -2,0 z m 25,0 0,14 -14,0 0,2 16,0 0,-16 -2,0 z m 18,0 0,14 -14,0 0,2 16,0 0,-16 -2,0 z m 18,0 0,14 -14,0 0,2 16,0 0,-16 -2,0 z m 18,0 0,14 -14,0 0,2 16,0 0,-16 -2,0 z m 9,0 0,1 -1,0 0,1 -1,0 0,2 1,0 0,1 12,0 0,1 0,8 -12,0 0,2 14,0 0,-1 1,0 0,-9 -1,0 0,-1 1,0 0,-3 -3,0 0,-1 -1,0 0,-1 -10,0 z m -215,6 0,8 -14,0 0,2 16,0 0,-10 -2,0 z m 113,0 0,2 4,0 0,-2 -4,0 z M 1,9 1,11 7,11 7,9 1,9 z m 26,0 0,2 6,0 0,-2 -6,0 z m 117,0 0,6 -12,0 0,2 14,0 0,-8 -2,0 z m 109,0 0,1 4,0 0,-1 -4,0 z"
       id="rect3780"
       inkscape:connector-curvature="0" />
    <path
       style="color:#000000;fill:#ffffff;fill-opacity:1;fill-rule:nonzero;stroke:none;stroke-width:5;marker:none;visibility:visible;display:inline;overflow:visible;enable-background:accumulate"
       d="M 4,0 4,2 3,2 3,4 2,4 2,6 1,6 1,8 0,8 l 0,2 7,0 0,1 -1,0 0,1 -1,0 0,2 -1,0 0,2 1,0 0,-1 1,0 0,-1 1,0 0,-1 1,0 0,-1 1,0 0,-1 1,0 0,-1 1,0 0,-1 1,0 0,-1 1,0 0,-1 1,0 0,-1 1,0 0,-1 -3,0 0,-1 1,0 0,-1 1,0 0,-1 1,0 0,-1 1,0 0,-1 -12,0 z m 0,16 -1,0 0,1 1,0 0,-1 z m 16,-16 0,16 16,0 0,-10 -10,0 0,4 6,0 0,2 -8,0 0,-8 12,0 0,-4 -16,0 z m 18,0 0,16 4,0 0,-6 8,0 0,6 4,0 0,-16 -16,0 z m 18,0 0,16 4,0 0,-12 2,0 0,12 4,0 0,-12 2,0 0,12 4,0 0,-16 -16,0 z m 18,0 0,16 16,0 0,-4 -12,0 0,-2 12,0 0,-4 -12,0 0,-2 12,0 0,-4 -16,0 z m 29,0 0,8 -8,0 0,8 16,0 0,-16 -8,0 z m 10,0 0,16 16,0 0,-16 -16,0 z m 18,0 0,16 14,0 0,-8 -6,0 0,-8 -8,0 z m 16,0 0,8 4,0 0,8 8,0 0,-8 4,0 0,-8 -16,0 z m 33,0 0,8 -8,0 0,8 16,0 0,-16 -8,0 z m 10,0 0,16 16,0 0,-16 -16,0 z m 18,0 0,16 16,0 0,-16 -16,0 z m 18,0 0,16 16,0 0,-16 -16,0 z m 24,0 0,1 -2,0 0,1 -1,0 0,3 1,0 0,1 -1,0 0,9 1,0 0,1 14,0 0,-1 1,0 0,-9 -1,0 0,-1 1,0 0,-2 0,-1 -1,0 0,-1 -2,0 0,-1 -10,0 z m 0,2 10,0 0,1 1,0 0,2 -12,0 0,-2 1,0 0,-1 z m -208,2 8,0 0,2 -8,0 0,-2 z m 211,5 4,0 0,1 -4,0 0,-1 z"
       id="rect3815"
       inkscape:connector-curvature="0" />
    <path
       style="color:#000000;fill:#2f7f6f;fill-opacity:1;fill-rule:nonzero;stroke:none;stroke-width:5;marker:none;visibility:visible;display:inline;overflow:visible;enable-background:accumulate"
       d="M 5,2 5,4 4,4 4,6 5,6 5,7 6,7 6,6 7,6 7,7 8,7 8,6 9,6 9,5 l 1,0 0,-1 1,0 0,-1 1,0 0,-1 z M 8,7 8,8 9,8 9,7 z M 7,7 6,7 6,8 7,8 z M 5,7 4,7 4,8 5,8 z M 4,7 4,6 3,6 3,7 z m 6,0 0,1 1,0 0,-1 z"
       id="rect3858"
       inkscape:connector-curvature="0"
       sodipodi:nodetypes="cccccccccccccccccccccccccccccccccccccccccccccc" />
    <path
       style="color:#000000;fill:#ccff00;fill-opacity:1;fill-rule:nonzero;stroke:none;stroke-width:5;marker:none;visibility:visible;display:inline;overflow:visible;enable-background:accumulate"
       d="M 4,6 4,7 5,7 5,6 4,6 z M 5,7 5,8 6,8 6,7 5,7 z M 6,7 7,7 7,6 6,6 6,7 z M 7,7 7,8 8,8 8,7 7,7 z M 8,7 9,7 9,6 8,6 8,7 z M 9,7 9,8 8,8 8,10 9,10 9,9 10,9 10,7 9,7 z M 4,7 3,7 3,8 4,8 4,7 z"
       id="rect3881"
       inkscape:connector-curvature="0" />
    <path
       style="color:#000000;fill:#2f7f6f;fill-opacity:1;fill-rule:nonzero;stroke:none;stroke-width:5;marker:none;visibility:visible;display:inline;overflow:visible;enable-background:accumulate"
       d="m 105,2 0,8 -8,0 0,4 1,0 0,-3 8,0 0,-2 1,0 0,-1 -1,0 0,-1 1,0 0,1 1,0 0,-1 1,0 0,-5 -4,0 z m 3,6 0,1 1,0 0,-1 -1,0 z m 7,-6 0,12 1,0 0,-5 1,0 0,-1 -1,0 0,-1 1,0 0,1 1,0 0,-1 1,0 0,-1 4,0 0,4 -3,0 0,1 4,0 0,-2 1,0 0,-1 -1,0 0,-1 1,0 0,1 1,0 0,-1 1,0 0,-5 -12,0 z m 11,6 0,1 1,0 0,-1 -1,0 z m -8,0 0,1 1,0 0,-1 -1,0 z m 15,-6 0,12 1,0 0,-5 1,0 0,-1 -1,0 0,-1 1,0 0,1 1,0 0,-1 1,0 0,-5 -4,0 z m 3,6 0,1 1,0 0,-1 -1,0 z m 13,-6 0,4 4,0 0,8 1,0 0,-5 1,0 0,-1 -1,0 0,-1 1,0 0,1 1,0 0,-1 1,0 0,-1 4,0 0,-4 -12,0 z m 7,6 0,1 1,0 0,-1 -1,0 z m 94,-3 0,1 10,0 0,-1 -10,0 z m 10,1 0,7 1,0 0,-7 -1,0 z m 0,7 -10,0 0,1 10,0 0,-1 z m -10,0 0,-7 -1,0 0,7 1,0 z m -112,-3 0,1 5,0 0,-1 -5,0 z"
       id="rect4026"
       inkscape:connector-curvature="0" />
    <path
       style="color:#000000;fill:#ccff00;fill-opacity:1;fill-rule:nonzero;stroke:none;stroke-width:5;marker:none;visibility:visible;display:inline;overflow:visible;enable-background:accumulate"
       d="m 250,3 0,1 1,0 0,-1 -1,0 z m 2,0 0,1 2,0 0,-1 -2,0 z m -146,4 0,1 1,0 0,-1 -1,0 z m 1,1 0,1 -1,0 0,2 -8,0 0,3 11,0 0,-5 -1,0 0,-1 -1,0 z m 1,0 1,0 0,-1 -1,0 0,1 z m 8,-1 0,1 1,0 0,-1 -1,0 z m 1,1 0,1 -1,0 0,5 11,0 0,-5 -1,0 0,-1 -1,0 0,1 -1,0 0,2 -4,0 0,-1 -1,0 0,-1 -1,0 0,-1 -1,0 z m 1,0 1,0 0,-1 -1,0 0,1 z m 7,0 0,-1 -1,0 0,1 1,0 z m 1,0 1,0 0,-1 -1,0 0,1 z m 8,-1 0,1 1,0 0,-1 -1,0 z m 1,1 0,1 -1,0 0,5 9,0 0,-3 -5,0 0,-1 -1,0 0,-1 -1,0 0,-1 -1,0 z m 1,0 1,0 0,-1 -1,0 0,1 z m 18,-1 0,1 1,0 0,-1 -1,0 z m 1,1 0,1 -1,0 0,5 3,0 0,-5 -1,0 0,-1 -1,0 z m 1,0 1,0 0,-1 -1,0 0,1 z"
       id="rect4088"
       inkscape:connector-curvature="0" />
    <path
       style="color:#000000;fill:#ff3fac;fill-opacity:1;fill-rule:nonzero;stroke:none;stroke-width:5;marker:none;visibility:visible;display:inline;overflow:visible;enable-background:accumulate"
       d="m 182,2 0,7.9999997 -8,0 L 174,14 l 1,0 0,-3 8,0 0,-2 1,0 0,-1 -1,0 0,-1 1,0 0,1 1,0 0,-1 1,0 0,-5 z m 3,6 0,1 1,0 0,-1 z m 7,-6 0,12 1,0 0,-5 1,0 0,-1 -1,0 0,-1 1,0 0,1 1,0 0,-1 1,0 0,-1 4,0 0,2 -3,0 0,1 5,0 0,-1 -1,0 0,-1 1,0 0,1 1,0 0,-1 1,0 0,-5 z m 11,6 0,1 1,0 0,-1 z m -8,0 0,1 1,0 0,-1 z m 15,-6 0,12 1,0 0,-5 1,0 0,-1 -1,0 0,-1 1,0 0,1 1,0 0,-2 2,0 0,2 0,6 1,0 0,-6 1,0 0,-2 2,0 0,2 0,6 1,0 0,-6 1,0 0,-1 1,0 0,-5 z m 11,6 0,1 1,0 0,-1 z m 7,-6 0,7 2,0 0,-1 -1,0 0,-1 1,0 0,1 1,0 0,-1 1,0 0,-2 8,0 0,-3 z m 4,5 0,1 1,0 0,1 1,0 0,-1 1,0 0,1 1,0 0,-1 1,0 0,1 1,0 0,-1 1,0 0,1 1,0 0,-2 z m 0,1 -1,0 0,1 1,0 z m 19,-1 0,1 -1,0 0,1 1,0 0,2 -1,0 0,2 10,0 0,-6 z m 1,1 6,0 0,3 -6,0 z M 236,9.9999997 236,11 l -8,0 0,3 1,0 0,-2 8,0 0,-2.0000003 z M 200,11 l 0,3 1,0 0,-3 z"
       id="rect4263"
       inkscape:connector-curvature="0"
       sodipodi:nodetypes="cccccccccccccccccccccccccccccccccccccccccccccccccccccccccccccccccccccccccccccccccccccccccccccccccccccccccccccccccccccccccccccccccccccccccccccccccccccccccccccccccccccc" />
    <path
       style="color:#000000;fill:#31d6ff;fill-opacity:1;fill-rule:nonzero;stroke:none;stroke-width:5;marker:none;visibility:visible;display:inline;overflow:visible;enable-background:accumulate"
       d="m 254,3 0,1 1,0 0,-1 z m 2,0 0,1 1,0 0,-1 z m -6,3 0,1 1,0 0,-1 z m 9,0 0,1 1,0 0,-1 z m -76,1 0,1 1,0 0,-1 z m 1,1 0,1 -1,0 0,2 -8,0 0,3 11,0 0,-5 -1,0 0,-1 z m 1,0 1,0 0,-1 -1,0 z m 8,-1 0,1 1,0 0,-1 z m 1,1 0,1 -1,0 0,5 3,0 0,-4.0000003 4,0 L 200,11 l 1,0 0,3 3,0 0,-5 -1,0 0,-1 -1,0 0,1 -1,0 -4,0 0,-1 -1,0 0,1 -1,0 0,-1 z m 1,0 1,0 0,-1 -1,0 z m 7,0 0,-1 -1,0 0,1 z m 1,0 1,0 0,-1 -1,0 z m 8,-1 0,1 1,0 0,-1 z m 1,1 0,1 -1,0 0,5 2,0 0,-6 z m 9,-1 0,1 1,0 0,-1 z m 0,1 -1,0 0,6 2,0 0,-5 -1,0 z m 8,-1 0,1 1,0 0,-1 z m 1,1 0,1 1,0 0,-1 z m 1,0 1,0 0,-1 -1,0 z m 1,0 0,1 1,0 0,-1 z m -16,0 0,6 1,0 0,-6 z m 18,0 0,1 1,0 0,-1 z m 2,0 0,1.9999997 1,0 L 237,12 l -8,0 0,2 11,0 0,-5 -1,0 0,-1 -1,0 0,1 -1,0 0,-1 z m 19,1 0,0.9999997 1,0 L 256,9 z"
       id="rect4368"
       inkscape:connector-curvature="0"
       sodipodi:nodetypes="ccccccccccccccccccccccccccccccccccccccccccccccccccccccccccccccccccccccccccccccccccccccccccccccccccccccccccccccccccccccccccccccccccccccccccccccccccccccccccccccc" />
  </g>
</svg>
