<?xml version="1.0" encoding="UTF-8" standalone="no"?>
<!-- Created with Inkscape (http://www.inkscape.org/) -->

<svg
   xmlns:dc="http://purl.org/dc/elements/1.1/"
   xmlns:cc="http://creativecommons.org/ns#"
   xmlns:rdf="http://www.w3.org/1999/02/22-rdf-syntax-ns#"
   xmlns:svg="http://www.w3.org/2000/svg"
   xmlns="http://www.w3.org/2000/svg"
   xmlns:sodipodi="http://sodipodi.sourceforge.net/DTD/sodipodi-0.dtd"
   xmlns:inkscape="http://www.inkscape.org/namespaces/inkscape"
   width="17"
   height="18"
   viewBox="0 0 17 18"
   id="svg2"
   version="1.1"
   inkscape:version="0.48.4 r9939"
   sodipodi:docname="C:\Users\Knite\Dropbox\Game Jolt\Logo\Inkscape Individual SVGs\jams-logo.svg">
  <defs
     id="defs4" />
  <sodipodi:namedview
     id="base"
     pagecolor="#ffffff"
     bordercolor="#666666"
     borderopacity="1.0"
     inkscape:pageopacity="0.0"
     inkscape:pageshadow="2"
     inkscape:zoom="24.01"
     inkscape:cx="10.003767"
     inkscape:cy="10.734307"
     inkscape:document-units="px"
     inkscape:current-layer="layer2"
     showgrid="true"
     inkscape:window-width="1600"
     inkscape:window-height="838"
     inkscape:window-x="-8"
     inkscape:window-y="-8"
     inkscape:window-maximized="1"
     showguides="true"
     inkscape:guide-bbox="true"
     fit-margin-bottom="1"
     fit-margin-top="0"
     fit-margin-left="0"
     fit-margin-right="0">
    <inkscape:grid
       type="xygrid"
       id="grid2985"
       empspacing="5"
       visible="true"
       enabled="true"
       snapvisiblegridlinesonly="true"
       originx="-75px"
       originy="0px" />
  </sodipodi:namedview>
  <metadata
     id="metadata7">
    <rdf:RDF>
      <cc:Work
         rdf:about="">
        <dc:format>image/svg+xml</dc:format>
        <dc:type
           rdf:resource="http://purl.org/dc/dcmitype/StillImage" />
        <dc:title></dc:title>
        <dc:creator>
          <cc:Agent>
            <dc:title>T. Gantt</dc:title>
          </cc:Agent>
        </dc:creator>
      </cc:Work>
    </rdf:RDF>
  </metadata>
  <g
     inkscape:groupmode="layer"
     id="layer2"
     inkscape:label="jam-jar"
     style="display:inline"
     transform="translate(-75,0)"
     sodipodi:insensitive="true">
    <path
       style="color:#000000;fill:#000000;fill-opacity:1;fill-rule:nonzero;stroke:none;stroke-width:5;marker:none;visibility:visible;display:inline;overflow:visible;enable-background:accumulate"
       d="m 78,1 0,1 -1,0 0,1 -1,0 0,2 1,0 0,1 12,0 0,1 0,8 -12,0 0,2 14,0 0,-1 1,0 0,-9 -1,0 0,-1 1,0 0,-3 -3,0 0,-1 -1,0 0,-1 z m 3,8 0,1 4,0 0,-1 z"
       id="rect4165"
       inkscape:connector-curvature="0"
       sodipodi:nodetypes="ccccccccccccccccccccccccccccccc" />
    <path
       style="color:#000000;fill:#ffffff;fill-opacity:1;fill-rule:nonzero;stroke:none;stroke-width:5;marker:none;visibility:visible;display:inline;overflow:visible;enable-background:accumulate"
       d="m 78,0 0,1 -2,0 0,1 -1,0 0,3 1,0 0,1 -1,0 0,9 1,0 0,1 14,0 0,-1 1,0 0,-9 -1,0 0,-1 1,0 0,-2 0,-1 -1,0 0,-1 -2,0 0,-1 z m 0,2 10,0 0,1 1,0 0,2 -12,0 0,-2 1,0 z m 3,7 4,0 0,1 -4,0 z"
       id="rect4208"
       inkscape:connector-curvature="0"
       sodipodi:nodetypes="cccccccccccccccccccccccccccccccccccccccc" />
    <path
       style="color:#000000;fill:#ff3fac;fill-opacity:1;fill-rule:nonzero;stroke:none;stroke-width:5;marker:none;visibility:visible;display:inline;overflow:visible;enable-background:accumulate"
       d="m 79,7 0,1 -1,0 0,1 1,0 0,2 -1,0 0,2 10,0 0,-6 z m 1,1 6,0 0,3 -6,0 z"
       id="rect4263"
       inkscape:connector-curvature="0"
       sodipodi:nodetypes="cccccccccccccccc" />
    <path
       style="color:#000000;fill:#31d6ff;fill-opacity:1;fill-rule:nonzero;stroke:none;stroke-width:5;marker:none;visibility:visible;display:inline;overflow:visible;enable-background:accumulate"
       d="m 82,3 0,1 1,0 0,-1 z m 2,0 0,1 1,0 0,-1 z m -6,3 0,1 1,0 0,-1 z m 9,0 0,1 1,0 0,-1 z m -4,3 0,1 1,0 0,-1 z"
       id="rect4368"
       inkscape:connector-curvature="0"
       sodipodi:nodetypes="ccccccccccccccccccccccccc" />
    <path
       style="color:#000000;fill:#ccff00;fill-opacity:1;fill-rule:nonzero;stroke:none;stroke-width:5;marker:none;visibility:visible;display:inline;overflow:visible;enable-background:accumulate"
       d="m 78,3 0,1 1,0 0,-1 -1,0 z m 2,0 0,1 2,0 0,-1 -2,0 z"
       id="rect4443"
       inkscape:connector-curvature="0" />
    <path
       style="color:#000000;fill:#2f7f6f;fill-opacity:1;fill-rule:nonzero;stroke:none;stroke-width:5;marker:none;visibility:visible;display:inline;overflow:visible;enable-background:accumulate"
       d="m 78,5 0,1 10,0 0,-1 -10,0 z m 10,1 0,7 1,0 0,-7 -1,0 z m 0,7 -10,0 0,1 10,0 0,-1 z m -10,0 0,-7 -1,0 0,7 1,0 z"
       id="rect4448"
       inkscape:connector-curvature="0" />
  </g>
</svg>
