<?xml version="1.0" encoding="UTF-8" standalone="no"?>
<!-- Created with Inkscape (http://www.inkscape.org/) -->

<svg
   xmlns:dc="http://purl.org/dc/elements/1.1/"
   xmlns:cc="http://creativecommons.org/ns#"
   xmlns:rdf="http://www.w3.org/1999/02/22-rdf-syntax-ns#"
   xmlns:svg="http://www.w3.org/2000/svg"
   xmlns="http://www.w3.org/2000/svg"
   xmlns:sodipodi="http://sodipodi.sourceforge.net/DTD/sodipodi-0.dtd"
   xmlns:inkscape="http://www.inkscape.org/namespaces/inkscape"
   width="112"
   height="18"
   viewBox="0 0 112 18"
   id="svg2"
   version="1.1"
   inkscape:version="0.48.4 r9939"
   sodipodi:docname="C:\Users\Knite\Dropbox\Game Jolt\Logo\Inkscape Individual SVGs\jolt.svg">
  <defs
     id="defs4" />
  <sodipodi:namedview
     id="base"
     pagecolor="#ffffff"
     bordercolor="#666666"
     borderopacity="1.0"
     inkscape:pageopacity="0.0"
     inkscape:pageshadow="2"
     inkscape:zoom="18.19"
     inkscape:cx="24.65086"
     inkscape:cy="9.2202218"
     inkscape:document-units="px"
     inkscape:current-layer="layer2"
     showgrid="true"
     inkscape:window-width="1600"
     inkscape:window-height="838"
     inkscape:window-x="-8"
     inkscape:window-y="-8"
     inkscape:window-maximized="1"
     inkscape:snap-bbox="true"
     inkscape:snap-page="true"
     inkscape:snap-nodes="false">
    <inkscape:grid
       type="xygrid"
       id="grid2985"
       empspacing="5"
       visible="true"
       enabled="true"
       snapvisiblegridlinesonly="true" />
  </sodipodi:namedview>
  <metadata
     id="metadata7">
    <rdf:RDF>
      <cc:Work
         rdf:about="">
        <dc:format>image/svg+xml</dc:format>
        <dc:type
           rdf:resource="http://purl.org/dc/dcmitype/StillImage" />
        <dc:title></dc:title>
        <dc:creator>
          <cc:Agent>
            <dc:title>T. Gantt</dc:title>
          </cc:Agent>
        </dc:creator>
        <cc:license
           rdf:resource="" />
      </cc:Work>
    </rdf:RDF>
  </metadata>
  <g
     inkscape:groupmode="layer"
     id="layer2"
     inkscape:label="jolt-jams-logo"
     style="display:inline"
     sodipodi:insensitive="true">
    <path
       style="color:#000000;fill:#000000;fill-opacity:1;fill-rule:nonzero;stroke:none;stroke-width:5;marker:none;visibility:visible;display:inline;overflow:visible;enable-background:accumulate"
       d="m 14,1 0,1 -1,0 0,1 -1,0 0,1 -1,0 0,2 2,0 0,1 -1,0 0,1 -1,0 0,1 -1,0 0,1 -1,0 0,1 -1,0 0,1 -1,0 0,1 -1,0 0,1 -1,0 0,1 -1,0 0,2 0,1 1,0 0,-1 1,0 0,-1 1,0 0,-1 1,0 0,-1 1,0 0,-1 1,0 0,-1 1,0 0,-1 1,0 0,-1 1,0 0,-1 1,0 0,-1 1,0 0,-1 1,0 0,-1 -2,0 0,-2 1,0 0,-1 1,0 0,-1 1,0 0,-1 -3,0 z m 21,0 0,14 -14,0 0,2 16,0 0,-16 -2,0 z m 18,0 0,14 -14,0 0,2 16,0 0,-16 -2,0 z m 18,0 0,14 -14,0 0,2 16,0 0,-16 -2,0 z m 18,0 0,14 -14,0 0,2 16,0 0,-16 -2,0 z m 9,0 0,1 -1,0 0,1 -1,0 0,2 1,0 0,1 12,0 0,1 0,8 -12,0 0,2 14,0 0,-1 1,0 0,-9 -1,0 0,-1 1,0 0,-3 -3,0 0,-1 -1,0 0,-1 -10,0 z M 1,9 1,11 7,11 7,9 1,9 z m 100,0 0,1 4,0 0,-1 -4,0 z"
       id="rect3780"
       inkscape:connector-curvature="0" />
    <path
       style="color:#000000;fill:#ffffff;fill-opacity:1;fill-rule:nonzero;stroke:none;stroke-width:5;marker:none;visibility:visible;display:inline;overflow:visible;enable-background:accumulate"
       d="M 4,0 4,2 3,2 3,4 2,4 2,6 1,6 1,8 0,8 l 0,2 7,0 0,1 -1,0 0,1 -1,0 0,2 -1,0 0,2 1,0 0,-1 1,0 0,-1 1,0 0,-1 1,0 0,-1 1,0 0,-1 1,0 0,-1 1,0 0,-1 1,0 0,-1 1,0 0,-1 1,0 0,-1 1,0 0,-1 -3,0 0,-1 1,0 0,-1 1,0 0,-1 1,0 0,-1 1,0 0,-1 -12,0 z m 0,16 -1,0 0,1 1,0 0,-1 z m 24,-16 0,8 -8,0 0,8 16,0 0,-16 -8,0 z m 10,0 0,16 16,0 0,-16 -16,0 z m 18,0 0,16 16,0 0,-16 -16,0 z m 18,0 0,16 16,0 0,-16 -16,0 z m 24,0 0,1 -2,0 0,1 -1,0 0,3 1,0 0,1 -1,0 0,9 1,0 0,1 14,0 0,-1 1,0 0,-9 -1,0 0,-1 1,0 0,-2 0,-1 -1,0 0,-1 -2,0 0,-1 -10,0 z m 0,2 10,0 0,1 1,0 0,2 -12,0 0,-2 1,0 0,-1 z m 3,7 4,0 0,1 -4,0 0,-1 z"
       id="rect3815"
       inkscape:connector-curvature="0" />
    <path
       style="color:#000000;fill:#2f7f6f;fill-opacity:1;fill-rule:nonzero;stroke:none;stroke-width:5;marker:none;visibility:visible;display:inline;overflow:visible;enable-background:accumulate"
       d="M 5,2 5,4 4,4 4,6 5,6 5,7 6,7 6,6 7,6 7,7 8,7 8,6 9,6 9,5 10,5 10,4 11,4 11,3 12,3 12,2 5,2 z M 8,7 8,8 9,8 9,7 8,7 z M 7,7 6,7 6,8 7,8 7,7 z M 5,7 4,7 4,8 5,8 5,7 z M 4,7 4,6 3,6 3,7 4,7 z m 94,-2 0,1 10,0 0,-1 -10,0 z m 10,1 0,7 1,0 0,-7 -1,0 z m 0,7 -10,0 0,1 10,0 0,-1 z m -10,0 0,-7 -1,0 0,7 1,0 z m -88,-6 0,1 1,0 0,-1 -1,0 z"
       id="rect3858"
       inkscape:connector-curvature="0" />
    <path
       style="color:#000000;fill:#ccff00;fill-opacity:1;fill-rule:nonzero;stroke:none;stroke-width:5;marker:none;visibility:visible;display:inline;overflow:visible;enable-background:accumulate"
       d="m 98,3 0,1 1,0 0,-1 -1,0 z m 2,0 0,1 2,0 0,-1 -2,0 z M 4,6 4,7 5,7 5,6 4,6 z M 5,7 5,8 6,8 6,7 5,7 z M 6,7 7,7 7,6 6,6 6,7 z M 7,7 7,8 8,8 8,7 7,7 z M 8,7 9,7 9,6 8,6 8,7 z M 9,7 9,8 8,8 8,10 9,10 9,9 10,9 10,7 9,7 z M 4,7 3,7 3,8 4,8 4,7 z"
       id="rect3881"
       inkscape:connector-curvature="0" />
    <path
       style="color:#000000;fill:#ff3fac;fill-opacity:1;fill-rule:nonzero;stroke:none;stroke-width:5;marker:none;visibility:visible;display:inline;overflow:visible;enable-background:accumulate"
       d="m 30.000005,2.0000001 0,7.9999999 -8,0 0,4 1,0 0,-3 8,0 0,-1.9999999 1,0 0,-1 -1,0 0,-1 1,0 0,1 1,0 0,-1 1,0 0,-5 z m 3,6 0,1 1,0 0,-1 z m 7,-6 0,11.9999999 1,0 0,-4.9999999 1,0 0,-1 -1,0 0,-1 1,0 0,1 1,0 0,-1 1,0 0,-1 4,0 0,2 -3,0 0,1 5,0 0,-1 -1,0 0,-1 1,0 0,1 1,0 0,-1 1,0 0,-5 z m 11,6 0,1 1,0 0,-1 z m -8,0 0,1 1,0 0,-1 z m 15,-6 0,11.9999999 1,0 0,-4.9999999 1,0 0,-1 -1,0 0,-1 1,0 0,1 1,0 0,-2 2,0 0,2 0,5.9999999 1,0 0,-5.9999999 1,0 0,-2 2,0 0,2 0,5.9999999 1,0 0,-5.9999999 1,0 0,-1 1,0 0,-5 z m 11,6 0,1 1,0 0,-1 z m 7,-6 0,7 2,0 0,-1 -1,0 0,-1 1,0 0,1 1,0 0,-1 1,0 0,-2 8,0 0,-3 z m 4,5 0,1 1,0 0,1 1,0 0,-1 1,0 0,1 1,0 0,-1 1,0 0,1 1,0 0,-1 1,0 0,1 1,0 0,-2 z m 0,1 -1,0 0,1 1,0 z m 19,-1 0,1 -1,0 0,1 1,0 0,1.9999999 -1,0 0,2 L 108,13 108,7.0000001 z m 1.000005,1 5.99999,0 L 106,11 100.00001,11 z M 84.000005,10 l 0,1 -8,0 0,3 1,0 0,-2 8,0 0,-2 z m -36,1 0,3 1,0 0,-3 z"
       id="rect4263"
       inkscape:connector-curvature="0"
       sodipodi:nodetypes="cccccccccccccccccccccccccccccccccccccccccccccccccccccccccccccccccccccccccccccccccccccccccccccccccccccccccccccccccccccccccccccccccccccccccccccccccccccccccccccccccccccc" />
    <path
       style="color:#000000;fill:#31d6ff;fill-opacity:1;fill-rule:nonzero;stroke:none;stroke-width:5;marker:none;visibility:visible;display:inline;overflow:visible;enable-background:accumulate"
       d="m 102,3.0000001 0,1 1,0 0,-1 z m 2,0 0,1 1,0 0,-1 z m -5.999995,3 0,1 1,0 0,-1 z m 8.999995,0 0,1 1,0 0,-1 z m -75.999995,1 0,1 1,0 0,-1 z m 1,1 0,1 -1,0 0,1.9999999 -8,0 0,3 11,0 0,-4.9999999 -1,0 0,-1 z m 1,0 1,0 0,-1 -1,0 z m 8,-1 0,1 1,0 0,-1 z m 1,1 0,1 -1,0 0,4.9999999 3,0 0,-4 4,0 0,1 1,0 0,3 3,0 0,-4.9999999 -1,0 0,-1 -1,0 0,1 -1,0 -4,0 0,-1 -1,0 0,1 -1,0 0,-1 z m 1,0 1,0 0,-1 -1,0 z m 7,0 0,-1 -1,0 0,1 z m 1,0 1,0 0,-1 -1,0 z m 8,-1 0,1 1,0 0,-1 z m 1,1 0,1 -1,0 0,4.9999999 2,0 0,-5.9999999 z m 9,-1 0,1 1,0 0,-1 z m 0,1 -1,0 0,5.9999999 2,0 0,-4.9999999 -1,0 z m 8,-1 0,1 1,0 0,-1 z m 1,1 0,1 1,0 0,-1 z m 1,0 1,0 0,-1 -1,0 z m 1,0 0,1 1,0 0,-1 z m -16,0 0,5.9999999 1,0 0,-5.9999999 z m 18,0 0,1 1,0 0,-1 z m 2,0 0,1.9999999 1,0 0,2 -8,0 0,2 11,0 0,-4.9999999 -1,0 0,-1 -1,0 0,1 -1,0 0,-1 z M 103,9.0000001 103,10 l 1,0 0,-0.9999999 z"
       id="rect4368"
       inkscape:connector-curvature="0"
       sodipodi:nodetypes="ccccccccccccccccccccccccccccccccccccccccccccccccccccccccccccccccccccccccccccccccccccccccccccccccccccccccccccccccccccccccccccccccccccccccccccccccccccccccccccccc" />
  </g>
</svg>
