<?xml version="1.0" encoding="UTF-8" standalone="no"?>
<!-- Created with Inkscape (http://www.inkscape.org/) -->

<svg
   xmlns:dc="http://purl.org/dc/elements/1.1/"
   xmlns:cc="http://creativecommons.org/ns#"
   xmlns:rdf="http://www.w3.org/1999/02/22-rdf-syntax-ns#"
   xmlns:svg="http://www.w3.org/2000/svg"
   xmlns="http://www.w3.org/2000/svg"
   version="1.1"
   width="9"
   height="18"
   id="svg2">
  <defs
     id="defs4" />
  <metadata
     id="metadata7">
    <rdf:RDF>
      <cc:Work
         rdf:about="">
        <dc:format>image/svg+xml</dc:format>
        <dc:type
           rdf:resource="http://purl.org/dc/dcmitype/StillImage" />
        <dc:title></dc:title>
        <dc:creator>
          <cc:Agent>
            <dc:title>T. Gantt</dc:title>
          </cc:Agent>
        </dc:creator>
      </cc:Work>
    </rdf:RDF>
  </metadata>
  <g
     transform="translate(-203,0)"
     id="layer2"
     style="display:inline">
    <path
       d="m 211,3 -1,1 0,9 -2,2 -3,0 -1,1 0,1 6,0 0,-1 1,0 0,-1 1,0 0,-12 z"
       id="path6358"
       style="color:#000000;fill:#000000;fill-opacity:1;fill-rule:nonzero;stroke:none;stroke-width:2;marker:none;visibility:visible;display:inline;overflow:visible;enable-background:accumulate" />
    <path
       d="m 203,2 0,14 6,0 0,-1 1,0 0,-1 1,0 0,-12 z"
       id="path6333"
       style="color:#000000;fill:#ffffff;fill-opacity:1;fill-rule:nonzero;stroke:none;stroke-width:2;marker:none;visibility:visible;display:inline;overflow:visible;enable-background:accumulate" />
    <path
       d="m 205,4 0,4 1,0 0.4375,-0.625 L 207,8 l 1,0 1,-1 0,-3 z m 0,6 0,4 1,0 0.5625,-0.25 0.0937,-2.15625 1.9063,-0.03125 L 209,11 l 0,-1 z"
       id="path6275"
       style="color:#000000;fill:#888888;fill-opacity:1;fill-rule:nonzero;stroke:none;stroke-width:2;marker:none;visibility:visible;display:inline;overflow:visible;enable-background:accumulate" />
    <path
       d="m 206,7 0,1 1,0 0,-1 z m 2,0 0,1 1,0 0,-1 z m -2,4 0,3 1,0 0,-1 1,0 0,-1 1,0 0,-1 z"
       id="path6222"
       style="color:#000000;fill:#31d6ff;fill-opacity:1;fill-rule:nonzero;stroke:none;stroke-width:2;marker:none;visibility:visible;display:inline;overflow:visible;enable-background:accumulate" />
  </g>
</svg>
