<?xml version="1.0" encoding="UTF-8" standalone="no"?>
<!-- Created with Inkscape (http://www.inkscape.org/) -->

<svg
   xmlns:dc="http://purl.org/dc/elements/1.1/"
   xmlns:cc="http://creativecommons.org/ns#"
   xmlns:rdf="http://www.w3.org/1999/02/22-rdf-syntax-ns#"
   xmlns:svg="http://www.w3.org/2000/svg"
   xmlns="http://www.w3.org/2000/svg"
   version="1.1"
   width="16"
   height="16"
   id="svg3892">
  <defs
     id="defs3894" />
  <metadata
     id="metadata3897">
    <rdf:RDF>
      <cc:Work
         rdf:about="">
        <dc:format>image/svg+xml</dc:format>
        <dc:type
           rdf:resource="http://purl.org/dc/dcmitype/StillImage" />
        <dc:title></dc:title>
        <dc:creator>
          <cc:Agent>
            <dc:title>T. Gantt</dc:title>
          </cc:Agent>
        </dc:creator>
        <cc:license
           rdf:resource="" />
      </cc:Work>
    </rdf:RDF>
  </metadata>
  <g
     id="layer1">
    <path
       d="m 2,1 0,1 -1,0 0,12 1,0 0,1 12,0 0,-1 1,0 0,-12 -1,0 0,-1 z m 2,2 8,0 0,1 1,0 0,8 -1,0 0,1 -8,0 0,-1 -1,0 0,-8 1,0 z M 7,5 7,7 5,7 5,9 7,9 7,11 9,11 9,9 11,9 11,7 9,7 9,5 z"
       id="rect4712"
       style="color:#000000;fill:#000000;fill-opacity:1;fill-rule:nonzero;stroke:none;stroke-width:8;marker:none;visibility:visible;display:inline;overflow:visible;enable-background:accumulate" />
  </g>
</svg>
