<?xml version="1.0" encoding="UTF-8" standalone="no"?>
<!-- Created with Inkscape (http://www.inkscape.org/) -->

<svg
   xmlns:dc="http://purl.org/dc/elements/1.1/"
   xmlns:cc="http://creativecommons.org/ns#"
   xmlns:rdf="http://www.w3.org/1999/02/22-rdf-syntax-ns#"
   xmlns:svg="http://www.w3.org/2000/svg"
   xmlns="http://www.w3.org/2000/svg"
   version="1.1"
   width="16"
   height="16"
   id="svg3892">
  <defs
     id="defs3894" />
  <metadata
     id="metadata3897">
    <rdf:RDF>
      <cc:Work
         rdf:about="">
        <dc:format>image/svg+xml</dc:format>
        <dc:type
           rdf:resource="http://purl.org/dc/dcmitype/StillImage" />
        <dc:title></dc:title>
        <dc:creator>
          <cc:Agent>
            <dc:title>T. Gantt</dc:title>
          </cc:Agent>
        </dc:creator>
        <cc:license
           rdf:resource="" />
      </cc:Work>
    </rdf:RDF>
  </metadata>
  <g
     id="layer1">
    <path
       d="m 12,1 0,1 1,0 0,1 1,0 0,1 1,0 0,-3 z m 1,2 -1,0 0,1 1,0 z m -1,1 -1,0 0,1 1,0 z m -1,1 -1,0 0,1 1,0 z M 10,6 9,6 9,7 10,7 z M 9,6 9,5 8,5 8,6 z M 8,5 8,4 7,4 7,5 z M 7,4 7,3 6,3 6,4 z M 6,4 5,4 5,5 6,5 z M 5,5 4,5 4,6 5,6 z M 4,6 3,6 3,7 4,7 z M 3,7 2,7 2,8 3,8 z M 2,8 1,8 1,9 2,9 z m 11,-2 0,9 2,0 0,-9 z m -8,1 0,8 2,0 0,-8 z m 4,2 0,6 2,0 0,-6 z m -8,2 0,4 2,0 0,-4 z"
       id="rect5278"
       style="color:#000000;fill:#000000;fill-opacity:1;fill-rule:nonzero;stroke:none;stroke-width:8;marker:none;visibility:visible;display:inline;overflow:visible;enable-background:accumulate" />
  </g>
</svg>
