<?xml version="1.0" encoding="UTF-8" standalone="no"?>
<!-- Created with Inkscape (http://www.inkscape.org/) -->

<svg
   xmlns:dc="http://purl.org/dc/elements/1.1/"
   xmlns:cc="http://creativecommons.org/ns#"
   xmlns:rdf="http://www.w3.org/1999/02/22-rdf-syntax-ns#"
   xmlns:svg="http://www.w3.org/2000/svg"
   xmlns="http://www.w3.org/2000/svg"
   version="1.1"
   width="16"
   height="16"
   id="svg2985">
  <defs
     id="defs2987" />
  <metadata
     id="metadata2990">
    <rdf:RDF>
      <cc:Work
         rdf:about="">
        <dc:format>image/svg+xml</dc:format>
        <dc:type
           rdf:resource="http://purl.org/dc/dcmitype/StillImage" />
        <dc:title></dc:title>
        <dc:creator>
          <cc:Agent>
            <dc:title>T. Gantt</dc:title>
          </cc:Agent>
        </dc:creator>
      </cc:Work>
    </rdf:RDF>
  </metadata>
  <g
     id="layer1">
    <path
       d="M 9,0 9,1 8,1 8,3 7,3 7,4 6,4 6,5 8,5 8,6 9,6 9,7 15,7 15,6 16,6 16,1 15,1 15,0 z M 1,2 1,3 0,3 0,5 1,5 1,6 0,6 0,7 4,7 4,6 3,6 3,5 4,5 4,3 3,3 3,2 z m 9,0 4,0 0,1 -4,0 z m 0,2 4,0 0,1 -4,0 z m -1,5 0,1 -1,0 0,2 -1,0 0,1 -1,0 0,1 2,0 0,1 1,0 0,1 6,0 0,-1 1,0 0,-5 -1,0 0,-1 z m -8,2 0,1 -1,0 0,2 1,0 0,1 -1,0 0,1 4,0 0,-1 -1,0 0,-1 1,0 0,-2 -1,0 0,-1 z m 9,0 4,0 0,1 -4,0 z m 0,2 4,0 0,1 -4,0 z"
       id="rect3774"
       style="color:#000000;fill:#000000;fill-opacity:1;fill-rule:nonzero;stroke:none;stroke-width:1.5;marker:none;visibility:visible;display:inline;overflow:visible;enable-background:accumulate" />
  </g>
</svg>
