<?xml version="1.0" encoding="UTF-8" standalone="no"?>
<!-- Created with Inkscape (http://www.inkscape.org/) -->

<svg
   xmlns:dc="http://purl.org/dc/elements/1.1/"
   xmlns:cc="http://creativecommons.org/ns#"
   xmlns:rdf="http://www.w3.org/1999/02/22-rdf-syntax-ns#"
   xmlns:svg="http://www.w3.org/2000/svg"
   xmlns="http://www.w3.org/2000/svg"
   version="1.1"
   width="16"
   height="16"
   id="svg2985">
  <defs
     id="defs2987" />
  <metadata
     id="metadata2990">
    <rdf:RDF>
      <cc:Work
         rdf:about="">
        <dc:format>image/svg+xml</dc:format>
        <dc:type
           rdf:resource="http://purl.org/dc/dcmitype/StillImage" />
        <dc:title></dc:title>
        <dc:creator>
          <cc:Agent>
            <dc:title>T. Gantt</dc:title>
          </cc:Agent>
        </dc:creator>
      </cc:Work>
    </rdf:RDF>
  </metadata>
  <g
     id="layer1">
    <path
       d="M 2,1 2,2 1,2 1,3 0,3 0,5 1,5 1,6 3,6 3,5 4,5 4,6 6,6 6,5 7,5 7,6 9,6 9,5 l 1,0 0,1 2,0 0,-1 1,0 0,1 2,0 0,-1 1,0 0,-2 -1,0 0,-1 -1,0 0,-1 z M 13,6 12,6 12,7 10,7 10,6 9,6 9,7 7,7 7,6 6,6 6,7 4,7 4,6 3,6 3,7 1,7 l 0,9 14,0 0,-9 -2,0 z m -9,2 3,0 0,1 2,0 0,-1 3,0 0,2 1,0 0,2 1,0 0,2 -1,0 0,1 -2,0 0,-1 -6,0 0,1 -2,0 0,-1 -1,0 0,-2 1,0 0,-2 1,0 z m 3,2 0,1 -1,0 0,1 1,0 0,1 2,0 0,-1 1,0 0,-1 -1,0 0,-1 z"
       id="rect3830"
       style="color:#000000;fill:#000000;fill-opacity:1;fill-rule:nonzero;stroke:none;stroke-width:2;marker:none;visibility:visible;display:inline;overflow:visible;enable-background:accumulate" />
  </g>
</svg>
