<?xml version="1.0" encoding="UTF-8" standalone="no"?>
<!-- Created with Inkscape (http://www.inkscape.org/) -->

<svg
   xmlns:dc="http://purl.org/dc/elements/1.1/"
   xmlns:cc="http://creativecommons.org/ns#"
   xmlns:rdf="http://www.w3.org/1999/02/22-rdf-syntax-ns#"
   xmlns:svg="http://www.w3.org/2000/svg"
   xmlns="http://www.w3.org/2000/svg"
   version="1.1"
   width="16"
   height="16"
   id="svg3892">
  <defs
     id="defs3894" />
  <metadata
     id="metadata3897">
    <rdf:RDF>
      <cc:Work
         rdf:about="">
        <dc:format>image/svg+xml</dc:format>
        <dc:type
           rdf:resource="http://purl.org/dc/dcmitype/StillImage" />
        <dc:title></dc:title>
        <dc:creator>
          <cc:Agent>
            <dc:title>T. Gantt</dc:title>
          </cc:Agent>
        </dc:creator>
        <cc:license
           rdf:resource="" />
      </cc:Work>
    </rdf:RDF>
  </metadata>
  <g
     id="layer1">
    <path
       d="M 7,1 7,2 5,2 5,3 3,3 3,4 1,4 1,6 3,6 3,7 5,7 5,8 7,8 7,9 9,9 9,8 11,8 11,7 13,7 13,6 15,6 15,4 13,4 13,3 11,3 11,2 9,2 9,1 7,1 z m 6,6 0,1 -2,0 0,1 L 9,9 9,10 7,10 7,9 5,9 5,8 3,8 3,7 1,7 l 0,2 2,0 0,1 2,0 0,1 2,0 0,1 2,0 0,-1 2,0 0,-1 2,0 0,-1 2,0 0,-2 -2,0 z m 0,3 0,1 -2,0 0,1 -2,0 0,1 -2,0 0,-1 -2,0 0,-1 -2,0 0,-1 -2,0 0,2 2,0 0,1 2,0 0,1 2,0 0,1 2,0 0,-1 2,0 0,-1 2,0 0,-1 2,0 0,-2 -2,0 z"
       id="rect5576"
       style="color:#000000;fill:#000000;fill-opacity:1;fill-rule:nonzero;stroke:none;stroke-width:8;marker:none;visibility:visible;display:inline;overflow:visible;enable-background:accumulate" />
  </g>
</svg>
