<?xml version="1.0" encoding="UTF-8" standalone="no"?>
<!-- Created with Inkscape (http://www.inkscape.org/) -->

<svg
   xmlns:dc="http://purl.org/dc/elements/1.1/"
   xmlns:cc="http://creativecommons.org/ns#"
   xmlns:rdf="http://www.w3.org/1999/02/22-rdf-syntax-ns#"
   xmlns:svg="http://www.w3.org/2000/svg"
   xmlns="http://www.w3.org/2000/svg"
   version="1.1"
   width="16"
   height="16"
   id="svg2985">
  <defs
     id="defs2987" />
  <metadata
     id="metadata2990">
    <rdf:RDF>
      <cc:Work
         rdf:about="">
        <dc:format>image/svg+xml</dc:format>
        <dc:type
           rdf:resource="http://purl.org/dc/dcmitype/StillImage" />
        <dc:title></dc:title>
        <dc:creator>
          <cc:Agent>
            <dc:title>T. Gantt</dc:title>
          </cc:Agent>
        </dc:creator>
      </cc:Work>
    </rdf:RDF>
  </metadata>
  <g
     id="layer1">
    <path
       d="M 10,1 10,2 9,2 9,3 8,3 8,4 7,4 7,6 8,6 8,5 9,5 9,4 l 1,0 0,-1 1,0 0,-1 1,0 0,1 1,0 0,1 1,0 0,1 -1,0 0,1 -1,0 0,1 -1,0 0,1 -1,0 0,1 2,0 0,-1 1,0 0,-1 1,0 0,-1 1,0 0,-3 -1,0 0,-1 -1,0 0,-1 -3,0 z M 10,8 10,7 11,7 11,5 9,5 9,6 8,6 8,7 7,7 7,8 6,8 6,9 5,9 l 0,2 2,0 0,-1 1,0 0,-1 1,0 0,-1 1,0 z m -2,2 0,1 -1,0 0,1 -1,0 0,1 -1,0 0,1 -1,0 0,-1 -1,0 0,-1 -1,0 0,-1 1,0 0,-1 1,0 L 4,9 5,9 5,8 6,8 6,7 4,7 4,8 3,8 3,9 2,9 l 0,1 -1,0 0,3 1,0 0,1 1,0 0,1 3,0 0,-1 1,0 0,-1 1,0 0,-1 1,0 0,-2 -1,0 z"
       id="rect3850"
       style="color:#000000;fill:#000000;fill-opacity:1;fill-rule:nonzero;stroke:none;stroke-width:3;marker:none;visibility:visible;display:inline;overflow:visible;enable-background:accumulate" />
  </g>
</svg>
