<?xml version="1.0" encoding="UTF-8" standalone="no"?>
<!-- Created with Inkscape (http://www.inkscape.org/) -->

<svg
   xmlns:dc="http://purl.org/dc/elements/1.1/"
   xmlns:cc="http://creativecommons.org/ns#"
   xmlns:rdf="http://www.w3.org/1999/02/22-rdf-syntax-ns#"
   xmlns:svg="http://www.w3.org/2000/svg"
   xmlns="http://www.w3.org/2000/svg"
   version="1.1"
   width="16"
   height="16"
   id="svg3892">
  <defs
     id="defs3894" />
  <metadata
     id="metadata3897">
    <rdf:RDF>
      <cc:Work
         rdf:about="">
        <dc:format>image/svg+xml</dc:format>
        <dc:type
           rdf:resource="http://purl.org/dc/dcmitype/StillImage" />
        <dc:title></dc:title>
        <dc:creator>
          <cc:Agent>
            <dc:title>T. Gantt</dc:title>
          </cc:Agent>
        </dc:creator>
        <cc:license
           rdf:resource="" />
      </cc:Work>
    </rdf:RDF>
  </metadata>
  <g
     id="layer1">
    <path
       d="m 11,3 0,1 -2,0 0,1 2,0 0,6 -2,0 0,1 2,0 0,1 1,0 0,-4 1,0 0,-2 -1,0 0,-4 z m -2,8 0,-1 -2,0 0,1 z M 7,10 7,9 5,9 5,7 7,7 7,6 1,6 1,7 0,7 l 0,2 1,0 0,1 2,0 0,4 2,0 0,-4 z M 7,6 9,6 9,5 7,5 z m 7,-1 0,1 1,0 0,-1 z m 1,1 0,4 1,0 0,-4 z m 0,4 -1,0 0,1 1,0 z"
       id="rect5031"
       style="color:#000000;fill:#000000;fill-opacity:1;fill-rule:nonzero;stroke:none;stroke-width:8;marker:none;visibility:visible;display:inline;overflow:visible;enable-background:accumulate" />
  </g>
</svg>
