<?xml version="1.0" encoding="UTF-8" standalone="no"?>
<!-- Created with Inkscape (http://www.inkscape.org/) -->

<svg
   xmlns:dc="http://purl.org/dc/elements/1.1/"
   xmlns:cc="http://creativecommons.org/ns#"
   xmlns:rdf="http://www.w3.org/1999/02/22-rdf-syntax-ns#"
   xmlns:svg="http://www.w3.org/2000/svg"
   xmlns="http://www.w3.org/2000/svg"
   version="1.1"
   width="16"
   height="16"
   id="svg2985">
  <defs
     id="defs2987" />
  <metadata
     id="metadata2990">
    <rdf:RDF>
      <cc:Work
         rdf:about="">
        <dc:format>image/svg+xml</dc:format>
        <dc:type
           rdf:resource="http://purl.org/dc/dcmitype/StillImage" />
        <dc:title></dc:title>
        <dc:creator>
          <cc:Agent>
            <dc:title>T. Gantt</dc:title>
          </cc:Agent>
        </dc:creator>
      </cc:Work>
    </rdf:RDF>
  </metadata>
  <g
     id="layer1">
    <path
       d="m 3,2 0,3 1,0 0,1 1,0 0,1 1,0 0,-1 7,0 0,1 -7,0 0,1 1,0 0,1 -1,0 0,1 7,0 0,1 -7,0 0,-1 -1,0 0,1 -1,0 0,1 -1,0 0,3 12,0 0,-13 z m 2,2 8,0 0,1 -8,0 z m -4,1 0,7 1,0 0,-1 1,0 0,-1 1,0 L 4,9 5,9 5,8 4,8 4,7 3,7 3,6 2,6 2,5 z m 7,3 5,0 0,1 -5,0 z m -3,4 8,0 0,1 -8,0 z"
       id="rect3781"
       style="color:#000000;fill:#000000;fill-opacity:1;fill-rule:nonzero;stroke:none;stroke-width:2;marker:none;visibility:visible;display:inline;overflow:visible;enable-background:accumulate" />
  </g>
</svg>
