<?xml version="1.0" encoding="UTF-8" standalone="no"?>
<!-- Created with Inkscape (http://www.inkscape.org/) -->

<svg
   xmlns:dc="http://purl.org/dc/elements/1.1/"
   xmlns:cc="http://creativecommons.org/ns#"
   xmlns:rdf="http://www.w3.org/1999/02/22-rdf-syntax-ns#"
   xmlns:svg="http://www.w3.org/2000/svg"
   xmlns="http://www.w3.org/2000/svg"
   version="1.1"
   width="16"
   height="16"
   id="svg3892">
  <defs
     id="defs3894" />
  <metadata
     id="metadata3897">
    <rdf:RDF>
      <cc:Work
         rdf:about="">
        <dc:format>image/svg+xml</dc:format>
        <dc:type
           rdf:resource="http://purl.org/dc/dcmitype/StillImage" />
        <dc:title></dc:title>
        <dc:creator>
          <cc:Agent>
            <dc:title>T. Gantt</dc:title>
          </cc:Agent>
        </dc:creator>
        <cc:license
           rdf:resource="" />
      </cc:Work>
    </rdf:RDF>
  </metadata>
  <g
     id="layer1">
    <path
       d="m 11,0 0,1 1,0 0,-1 -1,0 z m 1,1 0,1 1,0 0,-1 -1,0 z m 0,1 -1,0 0,1 1,0 0,-1 z M 11,2 11,1 9,1 9,2 11,2 z M 9,2 8,2 8,4 5,4 5,5 11,5 11,4 9,4 9,2 z m 2,3 0,1 2,0 0,-1 -2,0 z m 2,0 2,0 0,-1 -2,0 0,1 z m 2,0 0,2 1,0 0,-2 -1,0 z m 0,2 -1,0 0,1 1,0 0,-1 z m 0,1 0,4 1,0 0,-4 -1,0 z m 0,4 -1,0 0,1 1,0 0,-1 z m -1,1 -1,0 0,1 1,0 0,-1 z m -1,1 -2,0 0,1 2,0 0,-1 z m -2,1 -6,0 0,1 6,0 0,-1 z m -6,0 0,-1 -2,0 0,1 2,0 z m -2,-1 0,-1 -1,0 0,1 1,0 z m -1,-1 0,-1 -1,0 0,1 1,0 z M 1,12 1,8 0,8 0,12 1,12 z M 1,8 2,8 2,7 1,7 1,8 z M 1,7 1,5 0,5 0,7 1,7 z M 1,5 3,5 3,4 1,4 1,5 z M 3,5 3,6 5,6 5,5 3,5 z M 3,6 2,6 2,7 3,7 3,6 z m 11,1 0,-1 -1,0 0,1 1,0 z M 4,8 4,10 6,10 6,8 4,8 z m 6,0 0,2 2,0 0,-2 -2,0 z m -6,3 0,1 1,0 0,-1 -1,0 z m 1,1 0,1 6,0 0,-1 -6,0 z m 6,0 1,0 0,-1 -1,0 0,1 z"
       id="rect4232"
       style="color:#000000;fill:#000000;fill-opacity:1;fill-rule:nonzero;stroke:none;stroke-width:8;marker:none;visibility:visible;display:inline;overflow:visible;enable-background:accumulate" />
  </g>
</svg>
