<?xml version="1.0" encoding="UTF-8" standalone="no"?>
<!-- Created with Inkscape (http://www.inkscape.org/) -->

<svg
   xmlns:dc="http://purl.org/dc/elements/1.1/"
   xmlns:cc="http://creativecommons.org/ns#"
   xmlns:rdf="http://www.w3.org/1999/02/22-rdf-syntax-ns#"
   xmlns:svg="http://www.w3.org/2000/svg"
   xmlns="http://www.w3.org/2000/svg"
   version="1.1"
   width="16"
   height="16"
   id="svg2985">
  <defs
     id="defs2987" />
  <metadata
     id="metadata2990">
    <rdf:RDF>
      <cc:Work
         rdf:about="">
        <dc:format>image/svg+xml</dc:format>
        <dc:type
           rdf:resource="http://purl.org/dc/dcmitype/StillImage" />
        <dc:title></dc:title>
        <dc:creator>
          <cc:Agent>
            <dc:title>T. Gantt</dc:title>
          </cc:Agent>
        </dc:creator>
      </cc:Work>
    </rdf:RDF>
  </metadata>
  <g
     id="layer1">
    <path
       d="M 4,0 4,1 2,1 2,2 1,2 1,4 0,4 l 0,4 1,0 0,2 1,0 0,1 2,0 0,1 4,0 0,-1 2,0 0,2 1,0 0,1 1,0 0,1 1,0 0,1 2,0 0,-1 1,0 0,-2 -1,0 0,-1 -1,0 0,-1 -1,0 0,-1 -2,0 0,-2 1,0 L 12,4 11,4 11,2 10,2 10,1 8,1 8,0 z M 4,2 8,2 8,3 9,3 9,4 10,4 10,8 9,8 9,9 8,9 8,10 4,10 4,9 3,9 3,8 2,8 2,4 3,4 3,3 4,3 z M 4,4 4,6 5,6 5,5 6,5 6,4 z"
       id="rect3774"
       style="color:#000000;fill:#000000;fill-opacity:1;fill-rule:nonzero;stroke:none;stroke-width:8;marker:none;visibility:visible;display:inline;overflow:visible;enable-background:accumulate" />
  </g>
</svg>
