<?xml version="1.0" encoding="UTF-8" standalone="no"?>
<!-- Created with Inkscape (http://www.inkscape.org/) -->

<svg
   xmlns:dc="http://purl.org/dc/elements/1.1/"
   xmlns:cc="http://creativecommons.org/ns#"
   xmlns:rdf="http://www.w3.org/1999/02/22-rdf-syntax-ns#"
   xmlns:svg="http://www.w3.org/2000/svg"
   xmlns="http://www.w3.org/2000/svg"
   version="1.1"
   width="16"
   height="16"
   id="svg2">
  <defs
     id="defs4" />
  <metadata
     id="metadata7">
    <rdf:RDF>
      <cc:Work
         rdf:about="">
        <dc:format>image/svg+xml</dc:format>
        <dc:type
           rdf:resource="http://purl.org/dc/dcmitype/StillImage" />
        <dc:title></dc:title>
        <dc:creator>
          <cc:Agent>
            <dc:title>T. Gantt</dc:title>
          </cc:Agent>
        </dc:creator>
      </cc:Work>
    </rdf:RDF>
  </metadata>
  <g
     transform="translate(0,-1036.3622)"
     id="layer1">
    <path
       d="M 1,1 1,3 3,3 3,1 z M 3,3 3,4 4,4 4,3 z M 4,4 4,5 5,5 5,4 z M 5,5 5,6 6,6 6,5 z M 6,6 6,7 7,7 7,6 z m 4,-5 0,1 -1,0 0,3 -1,0 0,1 1,0 0,1 1,0 0,1 1,0 0,-1 3,0 0,-1 1,0 0,-3 -1,0 0,1 -1,0 0,1 -2,0 0,-2 1,0 0,-1 1,0 0,-1 z M 10,8 9,8 9,7 8,7 8,8 7,8 l 0,1 1,0 0,1 1,0 0,1 1,0 0,1 1,0 0,1 1,0 0,1 1,0 0,1 2,0 0,-2 -1,0 0,-1 -1,0 0,-1 -1,0 0,-1 -1,0 0,-1 -1,0 z M 8,10 7,10 7,9 6,9 6,8 5,8 5,9 2,9 l 0,1 -1,0 0,3 1,0 0,-1 1,0 0,-1 2,0 0,2 -1,0 0,1 -1,0 0,1 3,0 0,-1 1,0 0,-3 1,0 z"
       transform="translate(0,1036.3622)"
       id="rect3766"
       style="color:#000000;fill:#000000;fill-opacity:1;fill-rule:nonzero;stroke:none;stroke-width:8;marker:none;visibility:visible;display:inline;overflow:visible;enable-background:accumulate" />
  </g>
</svg>
