<?xml version="1.0" encoding="UTF-8" standalone="no"?>
<!-- Created with Inkscape (http://www.inkscape.org/) -->

<svg
   xmlns:dc="http://purl.org/dc/elements/1.1/"
   xmlns:cc="http://creativecommons.org/ns#"
   xmlns:rdf="http://www.w3.org/1999/02/22-rdf-syntax-ns#"
   xmlns:svg="http://www.w3.org/2000/svg"
   xmlns="http://www.w3.org/2000/svg"
   version="1.1"
   width="16"
   height="16"
   id="svg2985">
  <defs
     id="defs2987" />
  <metadata
     id="metadata2990">
    <rdf:RDF>
      <cc:Work
         rdf:about="">
        <dc:format>image/svg+xml</dc:format>
        <dc:type
           rdf:resource="http://purl.org/dc/dcmitype/StillImage" />
        <dc:title></dc:title>
        <dc:creator>
          <cc:Agent>
            <dc:title>T. Gantt</dc:title>
          </cc:Agent>
        </dc:creator>
      </cc:Work>
    </rdf:RDF>
  </metadata>
  <g
     id="layer1">
    <path
       d="m 6,0 0,1 5,0 0,-1 z m 5,1 0,1 2,0 0,-1 z m 2,1 0,2 -1,0 0,1 L 3,5 3,3 2,3 2,4 1,4 1,6 0,6 0,10 1,10 1,8 2,8 2,9 4,9 4,10 6,10 6,9 5,9 5,7 6,7 6,6 l 4,0 0,1 1,0 0,-1 3,0 0,-1 1,0 0,-2 -1,0 0,-1 z m 1,4 0,1 1,0 0,-1 z m 1,1 0,1 1,0 0,-1 z m 0,1 -1,0 0,1 1,0 z m -1,1 -1,0 0,1 1,0 z m -1,1 -1,0 0,1 1,0 z m -1,1 -1,0 0,2 1,0 z m -1,2 -1,0 0,-1 -1,0 0,-3 -1,0 0,2 -1,0 0,-1 -1,0 0,2 1,0 0,2 -2,0 0,-1 -2,0 0,1 1,0 0,1 2,0 0,1 4,0 0,-1 1,0 z m -8,0 0,-1 -1,0 0,1 z M 2,12 2,10 1,10 1,12 z M 9,9 10,9 10,7 9,7 z M 3,3 4,3 4,2 3,2 z M 4,2 6,2 6,1 4,1 z"
       id="rect3894"
       style="color:#000000;fill:#000000;fill-opacity:1;fill-rule:nonzero;stroke:none;stroke-width:2;marker:none;visibility:visible;display:inline;overflow:visible;enable-background:accumulate" />
  </g>
</svg>
