<?xml version="1.0" encoding="UTF-8" standalone="no"?>
<!-- Created with Inkscape (http://www.inkscape.org/) -->

<svg
   xmlns:dc="http://purl.org/dc/elements/1.1/"
   xmlns:cc="http://creativecommons.org/ns#"
   xmlns:rdf="http://www.w3.org/1999/02/22-rdf-syntax-ns#"
   xmlns:svg="http://www.w3.org/2000/svg"
   xmlns="http://www.w3.org/2000/svg"
   version="1.1"
   width="16"
   height="16"
   id="svg3809">
  <defs
     id="defs3811" />
  <metadata
     id="metadata3814">
    <rdf:RDF>
      <cc:Work
         rdf:about="">
        <dc:format>image/svg+xml</dc:format>
        <dc:type
           rdf:resource="http://purl.org/dc/dcmitype/StillImage" />
        <cc:license
           rdf:resource="" />
        <dc:title></dc:title>
        <dc:creator>
          <cc:Agent>
            <dc:title>T. Gantt</dc:title>
          </cc:Agent>
        </dc:creator>
      </cc:Work>
    </rdf:RDF>
  </metadata>
  <g
     id="layer1">
    <path
       d="M 6,0 6,1 5,1 5,4 6,4 6,2 7,2 7,4 6,4 6,5 10,5 10,4 9,4 9,2 10,2 10,4 11,4 11,1 10,1 10,0 6,0 z M 6,6 6,8 7,8 7,9 9,9 9,8 10,8 10,6 6,6 z m 4,2 0,3 1,0 0,-2 1,0 0,2 -1,0 0,1 4,0 0,-1 -1,0 0,-2 1,0 0,2 1,0 0,-3 -1,0 0,-1 -4,0 0,1 -1,0 z M 6,8 5,8 5,7 1,7 1,8 0,8 l 0,3 1,0 0,-2 1,0 0,2 -1,0 0,1 4,0 0,-1 -1,0 0,-2 1,0 0,2 1,0 0,-3 z m -5,5 0,1 -1,0 0,2 6,0 0,-2 -1,0 0,-1 -4,0 z m 10,0 0,1 -1,0 0,2 6,0 0,-2 -1,0 0,-1 -4,0 z"
       id="rect4338"
       style="color:#000000;fill:#000000;fill-opacity:1;fill-rule:nonzero;stroke:none;stroke-width:2;marker:none;visibility:visible;display:inline;overflow:visible;enable-background:accumulate" />
  </g>
</svg>
